ExploreSansVariable-ExtraLight.ufo
<glyph name="numbersign" format="2">
  <advance width="609"/>
  <unicode hex="0023"/>
  <outline>
    <contour>
      <point x="303" y="724" type="line"/>
      <point x="336" y="724" type="line"/>
      <point x="265" y="487" type="line"/>
      <point x="425" y="487" type="line"/>
      <point x="497" y="724" type="line"/>
      <point x="530" y="724" type="line"/>
      <point x="459" y="487" type="line"/>
      <point x="546" y="487" type="line"/>
      <point x="546" y="474" type="line"/>
      <point x="451" y="474" type="line"/>
      <point x="386" y="251" type="line"/>
      <point x="546" y="251" type="line"/>
      <point x="546" y="238" type="line"/>
      <point x="377" y="238" type="line"/>
      <point x="306" y="0" type="line"/>
      <point x="272" y="0" type="line"/>
      <point x="344" y="238" type="line"/>
      <point x="183" y="238" type="line"/>
      <point x="112" y="0" type="line"/>
      <point x="78" y="0" type="line"/>
      <point x="150" y="238" type="line"/>
      <point x="62" y="238" type="line"/>
      <point x="62" y="251" type="line"/>
      <point x="159" y="251" type="line"/>
      <point x="224" y="474" type="line"/>
      <point x="62" y="474" type="line"/>
      <point x="62" y="487" type="line"/>
      <point x="231" y="487" type="line"/>
    </contour>
    <contour>
      <point x="353" y="251" type="line"/>
      <point x="418" y="474" type="line"/>
      <point x="257" y="474" type="line"/>
      <point x="192" y="251" type="line"/>
    </contour>
  </outline>
</glyph>
<glyph name="dollar" format="2">
  <advance width="575"/>
  <unicode hex="0024"/>
  <outline>
    <component base="S" xOffset="4"/>
    <contour>
      <point x="264" y="863" type="line"/>
      <point x="299" y="863" type="line"/>
      <point x="299" y="-139" type="line"/>
      <point x="264" y="-139" type="line"/>
    </contour>
  </outline>
</glyph>
<glyph name="ampersand" format="2">
  <advance width="683"/>
  <unicode hex="0026"/>
  <outline>
    <contour>
      <point x="314" y="716" type="curve" smooth="yes"/>
      <point x="385" y="716"/>
      <point x="447" y="676"/>
      <point x="471" y="648" type="curve"/>
      <point x="451" y="636" type="line"/>
      <point x="407" y="670"/>
      <point x="356" y="697"/>
      <point x="286" y="697" type="curve" smooth="yes"/>
      <point x="193" y="697"/>
      <point x="141" y="634"/>
      <point x="141" y="572" type="curve" smooth="yes"/>
      <point x="141" y="515"/>
      <point x="159" y="492"/>
      <point x="197" y="442" type="curve"/>
      <point x="573" y="0" type="line"/>
      <point x="544" y="0" type="line"/>
      <point x="205" y="397" type="line"/>
      <point x="140" y="478"/>
      <point x="120" y="510"/>
      <point x="120" y="574" type="curve" smooth="yes"/>
      <point x="120" y="623"/>
      <point x="186" y="716"/>
    </contour>
    <contour>
      <point x="205" y="403" type="line"/>
      <point x="218" y="384" type="line"/>
      <point x="160" y="339" type="line" smooth="yes"/>
      <point x="96" y="289"/>
      <point x="72" y="219"/>
      <point x="72" y="159" type="curve" smooth="yes"/>
      <point x="72" y="72"/>
      <point x="126" y="12"/>
      <point x="238" y="12" type="curve" smooth="yes"/>
      <point x="327" y="12"/>
      <point x="420" y="68"/>
      <point x="437" y="138" type="curve"/>
      <point x="508" y="420" type="line"/>
      <point x="646" y="409" type="line"/>
      <point x="646" y="380" type="line"/>
      <point x="529" y="388" type="line"/>
      <point x="517" y="341"/>
      <point x="479" y="200"/>
      <point x="466" y="145" type="curve"/>
      <point x="452" y="70"/>
      <point x="346" y="-8"/>
      <point x="251" y="-8" type="curve" smooth="yes"/>
      <point x="120" y="-8"/>
      <point x="58" y="73"/>
      <point x="58" y="169" type="curve" smooth="yes"/>
      <point x="58" y="243"/>
      <point x="100" y="315"/>
      <point x="157" y="363" type="curve" smooth="yes"/>
    </contour>
  </outline>
</glyph>
<glyph name="asterisk" format="2">
  <advance width="560"/>
  <unicode hex="002A"/>
  <outline>
    <contour>
      <point x="245" y="806" type="line"/>
      <point x="288" y="806" type="line"/>
      <point x="288" y="692" type="line"/>
      <point x="283" y="641" type="line"/>
      <point x="330" y="664" type="line"/>
      <point x="433" y="705" type="line"/>
      <point x="451" y="655" type="line"/>
      <point x="356" y="621" type="line"/>
      <point x="312" y="612" type="line"/>
      <point x="339" y="579" type="line"/>
      <point x="396" y="491" type="line"/>
      <point x="357" y="462" type="line"/>
      <point x="293" y="549" type="line"/>
      <point x="269" y="595" type="line"/>
      <point x="243" y="549" type="line"/>
      <point x="178" y="462" type="line"/>
      <point x="139" y="491" type="line"/>
      <point x="194" y="578" type="line"/>
      <point x="225" y="611" type="line"/>
      <point x="180" y="621" type="line"/>
      <point x="84" y="655" type="line"/>
      <point x="101" y="705" type="line"/>
      <point x="203" y="664" type="line"/>
      <point x="251" y="641" type="line"/>
      <point x="245" y="692" type="line"/>
    </contour>
  </outline>
</glyph>
<glyph name="comma" format="2">
  <advance width="100"/>
  <unicode hex="002C"/>
  <outline>
    <contour>
      <point x="27" y="211" type="line"/>
      <point x="181" y="77" type="line"/>
      <point x="7" y="-286" type="line"/>
      <point x="-30" y="-153" type="line"/>
    </contour>
  </outline>
</glyph>
<glyph name="six" format="2">
  <advance width="523"/>
  <unicode hex="0036"/>
  <outline>
    <contour>
      <point x="299" y="716" type="curve" smooth="yes"/>
      <point x="337" y="716"/>
      <point x="396" y="695"/>
      <point x="453" y="659" type="curve"/>
      <point x="448" y="651" type="line"/>
      <point x="404" y="692"/>
      <point x="359" y="708"/>
      <point x="293" y="708" type="curve" smooth="yes"/>
      <point x="141" y="708"/>
      <point x="71" y="582"/>
      <point x="71" y="311" type="curve"/>
      <point x="91" y="384"/>
      <point x="169" y="439"/>
      <point x="255" y="439" type="curve" smooth="yes"/>
      <point x="391" y="439"/>
      <point x="473" y="355"/>
      <point x="473" y="217" type="curve" smooth="yes"/>
      <point x="473" y="93"/>
      <point x="377" y="-8"/>
      <point x="263" y="-8" type="curve" smooth="yes"/>
      <point x="117" y="-8"/>
      <point x="59" y="84"/>
      <point x="59" y="312" type="curve" smooth="yes"/>
      <point x="59" y="595"/>
      <point x="130" y="716"/>
    </contour>
    <contour>
      <point x="263" y="415" type="curve" smooth="yes"/>
      <point x="137" y="415"/>
      <point x="72" y="350"/>
      <point x="72" y="225" type="curve" smooth="yes"/>
      <point x="72" y="65"/>
      <point x="126" y="0"/>
      <point x="262" y="0" type="curve" smooth="yes"/>
      <point x="390" y="0"/>
      <point x="461" y="76"/>
      <point x="461" y="210" type="curve" smooth="yes"/>
      <point x="461" y="343"/>
      <point x="392" y="415"/>
    </contour>
  </outline>
</glyph>
<glyph name="eight" format="2">
  <advance width="523"/>
  <unicode hex="0038"/>
  <outline>
    <contour>
      <point x="261" y="716" type="curve" smooth="yes"/>
      <point x="377" y="716"/>
      <point x="449" y="639"/>
      <point x="449" y="516" type="curve" smooth="yes"/>
      <point x="449" y="434"/>
      <point x="400" y="368"/>
      <point x="337" y="369" type="curve"/>
      <point x="410" y="360"/>
      <point x="464" y="286"/>
      <point x="464" y="196" type="curve" smooth="yes"/>
      <point x="464" y="71"/>
      <point x="385" y="-7"/>
      <point x="261" y="-7" type="curve" smooth="yes"/>
      <point x="137" y="-7"/>
      <point x="59" y="68"/>
      <point x="59" y="193" type="curve" smooth="yes"/>
      <point x="59" y="303"/>
      <point x="103" y="342"/>
      <point x="184" y="369" type="curve"/>
      <point x="111" y="369"/>
      <point x="74" y="418"/>
      <point x="74" y="516" type="curve" smooth="yes"/>
      <point x="74" y="641"/>
      <point x="145" y="716"/>
    </contour>
    <contour>
      <point x="259" y="692" type="curve" smooth="yes"/>
      <point x="155" y="692"/>
      <point x="96" y="631"/>
      <point x="96" y="527" type="curve" smooth="yes"/>
      <point x="96" y="437"/>
      <point x="158" y="383"/>
      <point x="260" y="383" type="curve" smooth="yes"/>
      <point x="365" y="383"/>
      <point x="425" y="436"/>
      <point x="425" y="527" type="curve" smooth="yes"/>
      <point x="425" y="632"/>
      <point x="366" y="692"/>
    </contour>
    <contour>
      <point x="260" y="359" type="curve" smooth="yes"/>
      <point x="149" y="359"/>
      <point x="74" y="290"/>
      <point x="74" y="184" type="curve" smooth="yes"/>
      <point x="74" y="69"/>
      <point x="135" y="11"/>
      <point x="259" y="11" type="curve" smooth="yes"/>
      <point x="390" y="11"/>
      <point x="449" y="67"/>
      <point x="449" y="189" type="curve" smooth="yes"/>
      <point x="449" y="295"/>
      <point x="377" y="359"/>
    </contour>
  </outline>
</glyph>
<glyph name="equal" format="2">
  <advance width="608"/>
  <unicode hex="003D"/>
  <outline>
    <contour>
      <point x="72" y="597" type="line"/>
      <point x="754" y="532" type="line"/>
      <point x="502" y="418" type="line"/>
      <point x="-180" y="483" type="line"/>
    </contour>
    <contour>
      <point x="72" y="500" type="line"/>
      <point x="754" y="435" type="line"/>
      <point x="502" y="323" type="line"/>
      <point x="-180" y="388" type="line"/>
    </contour>
  </outline>
</glyph>
<glyph name="greater" format="2">
  <advance width="492"/>
  <unicode hex="003E"/>
  <outline>
    <contour>
      <point x="51" y="501" type="line"/>
      <point x="467" y="329" type="line"/>
      <point x="467" y="228" type="line"/>
      <point x="51" y="56" type="line"/>
      <point x="31" y="90" type="line"/>
      <point x="483" y="280" type="line"/>
      <point x="31" y="467" type="line"/>
    </contour>
  </outline>
</glyph>
<glyph name="N" format="2">
  <advance width="656"/>
  <unicode hex="004E"/>
  <outline>
    <contour>
      <point x="103" y="708" type="line"/>
      <point x="134" y="708" type="line"/>
      <point x="524" y="68" type="line"/>
      <point x="524" y="708" type="line"/>
      <point x="556" y="708" type="line"/>
      <point x="556" y="0" type="line"/>
      <point x="526" y="0" type="line"/>
      <point x="135" y="646" type="line"/>
      <point x="135" y="0" type="line"/>
      <point x="103" y="0" type="line"/>
    </contour>
  </outline>
</glyph>
<glyph name="R" format="2">
  <advance width="586"/>
  <unicode hex="0052"/>
  <outline>
    <contour>
      <point x="133" y="680" type="line"/>
      <point x="133" y="347" type="line"/>
      <point x="309" y="347" type="line" smooth="yes"/>
      <point x="399" y="347"/>
      <point x="488" y="390"/>
      <point x="488" y="513" type="curve" smooth="yes"/>
      <point x="488" y="628"/>
      <point x="428" y="680"/>
      <point x="317" y="680" type="curve" smooth="yes"/>
    </contour>
    <contour>
      <point x="101" y="708" type="line"/>
      <point x="314" y="708" type="line" smooth="yes"/>
      <point x="442" y="708"/>
      <point x="520" y="643"/>
      <point x="520" y="513" type="curve" smooth="yes"/>
      <point x="520" y="382"/>
      <point x="424" y="330"/>
      <point x="348" y="321" type="curve"/>
      <point x="526" y="0" type="line"/>
      <point x="490" y="0" type="line"/>
      <point x="316" y="319" type="line"/>
      <point x="133" y="319" type="line"/>
      <point x="133" y="0" type="line"/>
      <point x="101" y="0" type="line"/>
    </contour>
  </outline>
</glyph>
<glyph name="U" format="2">
  <advance width="631"/>
  <unicode hex="0055"/>
  <anchor x="279" y="880" name="AccentCenter"/>
  <outline>
    <contour>
      <point x="100" y="708" type="line"/>
      <point x="132" y="708" type="line"/>
      <point x="132" y="229" type="line" smooth="yes"/>
      <point x="132" y="73"/>
      <point x="214" y="20"/>
      <point x="316" y="20" type="curve" smooth="yes"/>
      <point x="417" y="20"/>
      <point x="499" y="73"/>
      <point x="499" y="229" type="curve" smooth="yes"/>
      <point x="499" y="708" type="line"/>
      <point x="531" y="708" type="line"/>
      <point x="531" y="229" type="line" smooth="yes"/>
      <point x="531" y="70"/>
      <point x="445" y="-8"/>
      <point x="316" y="-8" type="curve" smooth="yes"/>
      <point x="186" y="-8"/>
      <point x="100" y="68"/>
      <point x="100" y="229" type="curve" smooth="yes"/>
    </contour>
  </outline>
</glyph>
<glyph name="W" format="2">
  <advance width="770"/>
  <unicode hex="0057"/>
  <outline>
    <contour>
      <point x="46" y="708" type="line"/>
      <point x="67" y="708" type="line"/>
      <point x="220" y="31" type="line"/>
      <point x="378" y="708" type="line"/>
      <point x="400" y="708" type="line"/>
      <point x="551" y="31" type="line"/>
      <point x="703" y="708" type="line"/>
      <point x="724" y="708" type="line"/>
      <point x="559" y="0" type="line"/>
      <point x="541" y="0" type="line"/>
      <point x="390" y="690" type="line"/>
      <point x="233" y="0" type="line"/>
      <point x="211" y="0" type="line"/>
    </contour>
  </outline>
</glyph>
<glyph name="asciicircum" format="2">
  <advance width="515"/>
  <unicode hex="005E"/>
  <outline>
    <contour>
      <point x="72" y="718" type="line"/>
      <point x="206" y="852" type="line"/>
      <point x="275" y="852" type="line"/>
      <point x="409" y="718" type="line"/>
      <point x="364" y="665" type="line"/>
      <point x="241" y="784" type="line"/>
      <point x="118" y="665" type="line"/>
    </contour>
  </outline>
</glyph>
<glyph name="f" format="2">
  <advance width="355"/>
  <unicode hex="0066"/>
  <outline>
    <contour>
      <point x="262" y="732" type="curve" smooth="yes"/>
      <point x="290" y="732"/>
      <point x="317" y="727"/>
      <point x="340" y="722" type="curve"/>
      <point x="335" y="697" type="line"/>
      <point x="275" y="703" type="line" smooth="yes"/>
      <point x="212" y="709"/>
      <point x="174" y="669"/>
      <point x="174" y="605" type="curve" smooth="yes"/>
      <point x="174" y="520" type="line"/>
      <point x="326" y="520" type="line"/>
      <point x="326" y="492" type="line"/>
      <point x="174" y="492" type="line"/>
      <point x="174" y="0" type="line"/>
      <point x="142" y="0" type="line"/>
      <point x="142" y="492" type="line"/>
      <point x="24" y="492" type="line"/>
      <point x="24" y="520" type="line"/>
      <point x="142" y="520" type="line"/>
      <point x="142" y="605" type="line" smooth="yes"/>
      <point x="142" y="658"/>
      <point x="167" y="732"/>
    </contour>
  </outline>
</glyph>
<glyph name="p" format="2">
  <advance width="577"/>
  <unicode hex="0070"/>
  <outline>
    <contour>
      <point x="296" y="500" type="curve" smooth="yes"/>
      <point x="215" y="500"/>
      <point x="160" y="442"/>
      <point x="132" y="398" type="curve"/>
      <point x="132" y="127" type="line"/>
      <point x="174" y="56"/>
      <point x="216" y="20"/>
      <point x="300" y="20" type="curve" smooth="yes"/>
      <point x="411" y="20"/>
      <point x="481" y="118"/>
      <point x="481" y="265" type="curve" smooth="yes"/>
      <point x="481" y="421"/>
      <point x="407" y="500"/>
    </contour>
    <contour>
      <point x="100" y="520" type="line"/>
      <point x="123" y="520" type="line"/>
      <point x="132" y="436" type="line"/>
      <point x="173" y="492"/>
      <point x="220" y="528"/>
      <point x="307" y="528" type="curve" smooth="yes"/>
      <point x="433" y="528"/>
      <point x="513" y="437"/>
      <point x="513" y="261" type="curve" smooth="yes"/>
      <point x="513" y="98"/>
      <point x="424" y="-8"/>
      <point x="303" y="-8" type="curve" smooth="yes"/>
      <point x="258" y="-8"/>
      <point x="181" y="8"/>
      <point x="132" y="79" type="curve"/>
      <point x="132" y="-192" type="line"/>
      <point x="100" y="-192" type="line"/>
    </contour>
  </outline>
</glyph>
<glyph name="z" format="2">
  <advance width="542"/>
  <unicode hex="007A"/>
  <outline>
    <contour>
      <point x="97.6" y="520" type="line"/>
      <point x="447.2" y="520" type="line"/>
      <point x="447.2" y="475.6" type="line"/>
      <point x="98.8" y="18.8" type="line"/>
      <point x="447.2" y="18.8" type="line"/>
      <point x="447.2" y="0" type="line"/>
      <point x="94.4" y="0" type="line"/>
      <point x="94.4" y="38" type="line"/>
      <point x="440.8" y="494.8" type="line"/>
      <point x="97.6" y="494.8" type="line"/>
    </contour>
  </outline>
</glyph>
<glyph name="yen" format="2">
  <advance width="564"/>
  <unicode hex="00A5"/>
  <anchor x="286" y="880" name="AccentCenter"/>
  <outline>
    <component base="Y"/>
    <contour>
      <point x="111" y="288" type="line"/>
      <point x="455" y="288" type="line"/>
      <point x="455" y="250" type="line"/>
      <point x="111" y="250" type="line"/>
    </contour>
    <contour>
      <point x="111" y="155" type="line"/>
      <point x="455" y="155" type="line"/>
      <point x="455" y="114" type="line"/>
      <point x="111" y="114" type="line"/>
    </contour>
  </outline>
</glyph>
<glyph name="section" format="2">
  <advance width="537"/>
  <unicode hex="00A7"/>
  <outline>
    <contour>
      <point x="294" y="768" type="curve" smooth="yes"/>
      <point x="395" y="768"/>
      <point x="433" y="738"/>
      <point x="484" y="697" type="curve"/>
      <point x="464" y="687" type="line"/>
      <point x="428" y="722"/>
      <point x="364" y="751"/>
      <point x="277" y="751" type="curve" smooth="yes"/>
      <point x="262" y="751"/>
      <point x="85" y="747"/>
      <point x="85" y="591" type="curve" smooth="yes"/>
      <point x="85" y="495"/>
      <point x="132" y="444"/>
      <point x="253" y="419" type="curve" smooth="yes"/>
      <point x="304" y="408" type="line" smooth="yes"/>
      <point x="440" y="382"/>
      <point x="508" y="312"/>
      <point x="508" y="211" type="curve" smooth="yes"/>
      <point x="508" y="160"/>
      <point x="491" y="121"/>
      <point x="452" y="89" type="curve"/>
      <point x="461" y="61"/>
      <point x="468" y="30"/>
      <point x="468" y="0" type="curve" smooth="yes"/>
      <point x="468" y="-100"/>
      <point x="388" y="-191"/>
      <point x="252" y="-191" type="curve" smooth="yes"/>
      <point x="134" y="-191"/>
      <point x="68" y="-145"/>
      <point x="19" y="-89" type="curve"/>
      <point x="38" y="-68" type="line"/>
      <point x="99" y="-136"/>
      <point x="185" y="-173"/>
      <point x="261" y="-173" type="curve" smooth="yes"/>
      <point x="319" y="-173"/>
      <point x="451" y="-154"/>
      <point x="451" y="-11" type="curve" smooth="yes"/>
      <point x="451" y="59"/>
      <point x="430" y="124"/>
      <point x="258" y="160" type="curve"/>
      <point x="243" y="164" type="line"/>
      <point x="183" y="171"/>
      <point x="28" y="212"/>
      <point x="28" y="372" type="curve" smooth="yes"/>
      <point x="28" y="425"/>
      <point x="43" y="456"/>
      <point x="87" y="493" type="curve"/>
      <point x="74" y="524"/>
      <point x="68" y="551"/>
      <point x="68" y="580" type="curve" smooth="yes"/>
      <point x="68" y="676"/>
      <point x="136" y="768"/>
    </contour>
    <contour>
      <point x="98" y="453" type="curve"/>
      <point x="72" y="427"/>
      <point x="62" y="399"/>
      <point x="62" y="362" type="curve" smooth="yes"/>
      <point x="62" y="270"/>
      <point x="105" y="223"/>
      <point x="246" y="193" type="curve" smooth="yes"/>
      <point x="273" y="187" type="line"/>
      <point x="342" y="174"/>
      <point x="400" y="148"/>
      <point x="442" y="116" type="curve"/>
      <point x="466" y="143"/>
      <point x="478" y="178"/>
      <point x="478" y="221" type="curve" smooth="yes"/>
      <point x="478" y="288"/>
      <point x="459" y="349"/>
      <point x="283" y="385" type="curve"/>
      <point x="267" y="388" type="line"/>
      <point x="197" y="399"/>
      <point x="142" y="421"/>
    </contour>
  </outline>
</glyph>
<glyph name="copyright" format="2">
  <advance width="853"/>
  <unicode hex="00A9"/>
  <outline>
    <contour>
      <point x="426" y="725" type="curve" smooth="yes"/>
      <point x="223" y="725"/>
      <point x="58" y="559"/>
      <point x="58" y="356" type="curve" smooth="yes"/>
      <point x="58" y="152"/>
      <point x="223" y="-13"/>
      <point x="426" y="-13" type="curve" smooth="yes"/>
      <point x="631" y="-13"/>
      <point x="795" y="152"/>
      <point x="795" y="356" type="curve" smooth="yes"/>
      <point x="795" y="559"/>
      <point x="631" y="725"/>
    </contour>
    <contour>
      <point x="426" y="694" type="curve" smooth="yes"/>
      <point x="612" y="694"/>
      <point x="760" y="541"/>
      <point x="760" y="356" type="curve" smooth="yes"/>
      <point x="760" y="171"/>
      <point x="612" y="18"/>
      <point x="426" y="18" type="curve" smooth="yes"/>
      <point x="241" y="18"/>
      <point x="93" y="171"/>
      <point x="93" y="356" type="curve" smooth="yes"/>
      <point x="93" y="541"/>
      <point x="241" y="694"/>
    </contour>
    <contour>
      <point x="421" y="594" type="curve" smooth="yes"/>
      <point x="472" y="594"/>
      <point x="512" y="583"/>
      <point x="574" y="524" type="curve"/>
      <point x="563" y="510" type="line"/>
      <point x="507" y="561"/>
      <point x="474" y="575"/>
      <point x="414" y="575" type="curve" smooth="yes"/>
      <point x="306" y="575"/>
      <point x="243" y="507"/>
      <point x="243" y="355" type="curve" smooth="yes"/>
      <point x="243" y="204"/>
      <point x="306" y="138"/>
      <point x="411" y="138" type="curve" smooth="yes"/>
      <point x="479" y="138"/>
      <point x="515" y="146"/>
      <point x="566" y="200" type="curve"/>
      <point x="574" y="184" type="line"/>
      <point x="525" y="133"/>
      <point x="475" y="120"/>
      <point x="418" y="120" type="curve" smooth="yes"/>
      <point x="304" y="120"/>
      <point x="229" y="204"/>
      <point x="229" y="353" type="curve" smooth="yes"/>
      <point x="229" y="511"/>
      <point x="298" y="594"/>
    </contour>
  </outline>
</glyph>
<glyph name="eth" format="2">
  <advance width="576"/>
  <unicode hex="00F0"/>
  <outline>
    <contour>
      <point x="212" y="716" type="curve"/>
      <point x="244" y="716" type="line"/>
      <point x="284" y="691"/>
      <point x="313" y="670"/>
      <point x="331" y="651" type="curve"/>
      <point x="407" y="705" type="line"/>
      <point x="407" y="670" type="line"/>
      <point x="345" y="637" type="line"/>
      <point x="445" y="542"/>
      <point x="501" y="407"/>
      <point x="501" y="262" type="curve" smooth="yes"/>
      <point x="501" y="110"/>
      <point x="411" y="-7"/>
      <point x="298" y="-7" type="curve" smooth="yes"/>
      <point x="169" y="-7"/>
      <point x="75" y="108"/>
      <point x="75" y="276" type="curve" smooth="yes"/>
      <point x="75" y="408"/>
      <point x="182" y="528"/>
      <point x="300" y="528" type="curve" smooth="yes"/>
      <point x="359" y="528"/>
      <point x="406" y="512"/>
      <point x="443" y="478" type="curve"/>
      <point x="428" y="517"/>
      <point x="395" y="562"/>
      <point x="345" y="611" type="curve"/>
      <point x="249" y="544" type="line"/>
      <point x="245" y="574" type="line"/>
      <point x="333" y="623" type="line"/>
      <point x="289" y="665"/>
      <point x="249" y="695"/>
    </contour>
    <contour>
      <point x="287" y="505" type="curve" smooth="yes"/>
      <point x="161" y="505"/>
      <point x="82" y="413"/>
      <point x="82" y="266" type="curve" smooth="yes"/>
      <point x="82" y="99"/>
      <point x="162" y="1"/>
      <point x="298" y="1" type="curve" smooth="yes"/>
      <point x="416" y="1"/>
      <point x="494" y="99"/>
      <point x="494" y="249" type="curve" smooth="yes"/>
      <point x="494" y="339"/>
      <point x="479" y="408"/>
      <point x="446" y="449" type="curve"/>
      <point x="395" y="486"/>
      <point x="342" y="505"/>
    </contour>
  </outline>
</glyph>
<glyph name="uni0302" format="2">
  <unicode hex="0302"/>
  <anchor x="0" y="830" name="_AccentCenter"/>
  <outline>
    <contour>
      <point x="-35" y="930" type="line"/>
      <point x="35" y="930" type="line"/>
      <point x="146" y="786" type="line"/>
      <point x="115" y="761" type="line"/>
      <point x="0" y="899" type="line"/>
      <point x="-110" y="761" type="line"/>
      <point x="-146" y="786" type="line"/>
    </contour>
  </outline>
</glyph>
<glyph name="tildecomb" format="2">
  <unicode hex="0303"/>
  <anchor x="0" y="852" name="_AccentCenter"/>
  <outline>
    <contour>
      <point x="-67" y="902" type="curve" smooth="yes"/>
      <point x="-10" y="902"/>
      <point x="38" y="830"/>
      <point x="63" y="830" type="curve" smooth="yes"/>
      <point x="100" y="830"/>
      <point x="106" y="855"/>
      <point x="107" y="898" type="curve"/>
      <point x="149" y="898" type="line"/>
      <point x="149" y="826"/>
      <point x="102" y="802"/>
      <point x="44" y="802" type="curve" smooth="yes"/>
      <point x="-28" y="802"/>
      <point x="-39" y="870"/>
      <point x="-78" y="870" type="curve" smooth="yes"/>
      <point x="-122" y="870"/>
      <point x="-131" y="845"/>
      <point x="-131" y="806" type="curve"/>
      <point x="-170" y="806" type="line"/>
      <point x="-170" y="865"/>
      <point x="-165" y="902"/>
    </contour>
  </outline>
</glyph>
<glyph name="uni030A" format="2">
  <unicode hex="030A"/>
  <outline>
    <contour>
      <point x="0" y="924" type="curve" smooth="yes"/>
      <point x="49" y="924"/>
      <point x="89" y="892"/>
      <point x="89" y="840" type="curve" smooth="yes"/>
      <point x="89" y="788"/>
      <point x="49" y="756"/>
      <point x="0" y="756" type="curve" smooth="yes"/>
      <point x="-49" y="756"/>
      <point x="-89" y="788"/>
      <point x="-89" y="840" type="curve" smooth="yes"/>
      <point x="-89" y="892"/>
      <point x="-49" y="924"/>
    </contour>
    <contour>
      <point x="0" y="890" type="curve" smooth="yes"/>
      <point x="-31" y="890"/>
      <point x="-55" y="870"/>
      <point x="-55" y="840" type="curve" smooth="yes"/>
      <point x="-55" y="810"/>
      <point x="-31" y="790"/>
      <point x="0" y="790" type="curve" smooth="yes"/>
      <point x="31" y="790"/>
      <point x="55" y="810"/>
      <point x="55" y="840" type="curve" smooth="yes"/>
      <point x="55" y="870"/>
      <point x="31" y="890"/>
    </contour>
  </outline>
</glyph>
